<svg xmlns="http://www.w3.org/2000/svg" viewBox="0 0 108 108"><defs><style>.cls-1{fill:#fcfcfc;opacity:0;}.cls-2{fill:#262727;}.cls-3{fill:#ffd000;}.cls-4{fill:#050000;}.cls-5{fill:#fff;}.cls-6{fill:#ffd300;}.cls-7{fill:#f17868;}.cls-8{fill:#d71927;}.cls-9{fill:#d5031e;}</style></defs><title>4</title><g id="图层_2" data-name="图层 2"><rect class="cls-1" width="108" height="108"/><g id="_4" data-name="4"><path class="cls-2" d="M35.45,66c-1.25,1.49-2.35,2.08-3.12,3.87a8.07,8.07,0,0,0-.87,3.63,8.36,8.36,0,0,0,2.44,4.79c-.86.36-2.18,1.29-2.23,2.22a3.24,3.24,0,0,0,1.46,2.64,28,28,0,0,0,3.37.87S38.78,86.4,41,86.79a2,2,0,0,1,.93.28c.21.17,1,.67,1.06.93.56,1.7-.1,4.5-.07,6.3s.27,2.63,1.86,3.45A8.25,8.25,0,0,0,48,99c1.26,0,2.67,0,3.93,0l2.45-.59c1.48,0,5.46.26,6.72-.51s2.21-3,1.4-4.24a4.21,4.21,0,0,0-2.11-1.73c-.27-.11-1-.07-1.15-.33s.4-.65.44-.9c.12-.78.24-2.06.36-2.85a12.9,12.9,0,0,0,6.89-4.23,8.36,8.36,0,0,0,2.18-5.89c1.25.84,3.66,1.66,5,.9a4.46,4.46,0,0,0,2-4,35.73,35.73,0,0,0-1.6-5.9,3.76,3.76,0,0,0,1-1.71c.26-1.85-.18-3.9-2.55-4.41-1.75-.38-4.33.94-4.14,2.72A6.44,6.44,0,0,0,67,63s-4,.23-5.42.41a48.49,48.49,0,0,1-7.5.32c-3.5-.12-7-.63-10.49-.35s-6.68.19-9,2.84"/><path class="cls-3" d="M88.49,62c1.84,3,5.64,9.21,5.75,9.23a36.26,36.26,0,0,0,2.38-2.8C93.73,66.49,88.49,62,88.49,62Z"/><path d="M88,62.29q1.81,3,3.64,5.92a17.38,17.38,0,0,0,2.2,3.42.55.55,0,0,0,.65.08c1-.56,1.79-2,2.49-2.88a.55.55,0,0,0-.11-.85c-2.8-1.94-5.43-4.14-8-6.35-.53-.45-1.29.31-.76.76,2.66,2.26,5.36,4.53,8.24,6.52l-.11-.85c-.63.79-1.4,2.22-2.27,2.71l.65.08a20.9,20.9,0,0,1-2.26-3.57Q90.65,64.53,89,61.75C88.59,61.16,87.66,61.7,88,62.29Z"/><path class="cls-3" d="M91.84,61c2.11,1.06,10.38,6,10.38,6s1.42-2.65,1.75-3.34C99.91,62.73,91.84,61,91.84,61Z"/><path d="M91.57,61.51c3.55,1.82,7,3.94,10.38,6a.55.55,0,0,0,.74-.19c.59-1.11,1.2-2.21,1.75-3.34a.55.55,0,0,0-.32-.79c-4-.93-8.08-1.78-12.13-2.63-.68-.14-1,.9-.29,1,4,.85,8.1,1.7,12.13,2.63l-.32-.79c-.55,1.13-1.15,2.23-1.75,3.34l.74-.19c-3.43-2-6.83-4.16-10.38-6C91.5,60.26,91,61.19,91.57,61.51Z"/><path class="cls-3" d="M86.37,63.39c1,5,3.17,12.14,3.08,11.89l-4.76.82Z"/><path d="M85.85,63.53c.83,4,2,7.93,3.08,11.89l.9-.52c-.47-.38-1.54,0-2,.12l-3.25.56.68.52,1.69-12.71c.09-.69-1-.68-1.08,0L84.15,76.1c-.05.38.38.57.68.52l2.38-.41,1.5-.26a2,2,0,0,0,.6-.1c.33-.2.42.34-.23-.19a.54.54,0,0,0,.9-.52c-1.07-4-2.25-7.87-3.08-11.89C86.75,62.57,85.71,62.85,85.85,63.53Z"/><path class="cls-2" d="M82.49,37.33a30.52,30.52,0,0,1-1.06,10A23,23,0,0,1,74.13,58.4a31.71,31.71,0,0,1-11.9,6.42A75,75,0,0,1,52.1,66.94a48.6,48.6,0,0,1-14.2-.08c-7.59-1.25-10.23-3.27-13.18-5.24a24.33,24.33,0,0,1-7.17-8.82c-2.2-5.08-2.49-10-1.83-15.52.35-2.93,1.24-5.94.39-8.76-.7-2.33-2.49-4.15-3.71-6.26a1.83,1.83,0,0,1-.29-.76c0-.61,0-1.31.57-1.58,2.21-1.06,5.3.43,7.69.61.43,0,.83-.46,1.19-.71.61-.43.29-1,0-1.58a14.31,14.31,0,0,0-3-3.64c-1-1-2.44-3-1.42-4.28a2.6,2.6,0,0,1,2.1-.95c4.65.07,8.93,1.16,15.18,3.16a.64.64,0,0,0,.71-1c-.26-.34-.57-.66-.86-1C33.61,9.86,33,8.86,33.44,8c1-1.9,6.28-1.52,8.43-1.41a65.55,65.55,0,0,1,22,4.65A31.44,31.44,0,0,1,80.18,28,29.11,29.11,0,0,1,82.49,37.33Z"/><path d="M81.82,37.33c.41,8.84-2.73,16.74-10,22-6.85,5-15.8,6.89-24.14,7.33-6.91.37-14.5-.47-20.48-4.2a22.91,22.91,0,0,1-11-17c-.49-4.15.22-8.11.72-12.22.47-3.81-.64-6.42-2.77-9.49-.48-.69-2.18-2.6-.9-3.42.7-.45,2.29-.1,3,0,1.29.24,2.95,1,4.27.77,3.25-.55,1.54-3.64.26-5.16-1-1.19-2.37-2.14-3.07-3.55a2,2,0,0,1,.42-2.17c.38-.36,1.27-.24,1.78-.22q1.36.05,2.71.22a60.66,60.66,0,0,1,10.56,2.58c.89.28,2,.69,2.53-.4.77-1.65-2.86-3.07-1.36-4.54.84-.82,2.81-.74,3.88-.77s2.38,0,3.57.1c9,.5,18.93,2.06,26.5,7.21A30.88,30.88,0,0,1,81.82,37.33c.06.86,1.4.86,1.34,0a32.08,32.08,0,0,0-10.8-21.44C65.83,10.12,57.15,7.7,48.67,6.56c-2.25-.31-16.91-2.89-16,2.51a3.62,3.62,0,0,0,.72,1.51c.26.36,1.16.8.51,1.09a7.26,7.26,0,0,1-1.28-.4c-2.15-.66-4.31-1.28-6.51-1.75A37.69,37.69,0,0,0,21.2,8.8c-1.43-.11-3.06-.33-4.21.71-2.46,2.2.74,5.15,2.24,6.73C19.87,16.92,21,18,21,19c.05,1.46-2.7.51-3.57.32-1.52-.33-3.47-.79-4.94,0-3,1.57.86,5.52,1.83,7.08,2.8,4.5.55,9.88.42,14.81-.22,7.79,2.61,15.59,8.88,20.5,5.19,4.06,11.46,5.84,18,6.32A56.06,56.06,0,0,0,57.38,66.7a39.44,39.44,0,0,0,13.87-5.31,26.77,26.77,0,0,0,9.13-9.68,28.06,28.06,0,0,0,2.78-14.38C83.12,36.47,81.78,36.47,81.82,37.33Z"/><path class="cls-4" d="M57.26,40.1a1.36,1.36,0,0,1,.37,1.27,1.28,1.28,0,0,1-.94.71A4.79,4.79,0,0,1,53,40.95a4.09,4.09,0,0,1-.76-1c-.19-.29-.27-.37-.12-.68.28-.58,1.09-.58,1.72-.5A9,9,0,0,1,57.26,40.1Z"/><path d="M56.77,40.38c.72,1-.63,1.27-1.35,1.13A4.6,4.6,0,0,1,54.2,41c-.55-.29-2.4-1.76-.81-1.74a6.23,6.23,0,0,1,3.47,1.19c.52.51,1.33-.29.81-.81A7.24,7.24,0,0,0,54,38.22c-1.06-.16-3,.27-2.39,1.78a5.11,5.11,0,0,0,4.23,2.71c1.78.1,3.12-1.26,2-2.9C57.33,39.22,56.35,39.79,56.77,40.38Z"/><path class="cls-4" d="M69.52,35.37a1.44,1.44,0,0,1,0,.87,4,4,0,0,1-.72,1.59,2.75,2.75,0,0,1-2,1.36,1.13,1.13,0,0,1-1-.49,1.34,1.34,0,0,1,.19-1.44,5.82,5.82,0,0,1,2.44-2.17.75.75,0,0,1,1,.21Z"/><path d="M69,35.51c.3,1-1,3.18-2.12,3.12-1.95-.1,1.77-3.71,2.18-3a.55.55,0,0,0,.95-.55C68.74,32.9,64.24,37,65.41,39c.72,1.2,2.31.78,3.15,0s1.9-2.42,1.48-3.75C69.84,34.55,68.78,34.83,69,35.51Z"/><path class="cls-5" d="M37.43,46.93c-1,.76.7,2.15,1.24,2.62,2.82,2.46,5.38,3.34,8.73,4.28a15.36,15.36,0,0,0,4.39.51,7.29,7.29,0,0,0,6.81-6.6,2.36,2.36,0,0,0-.17-1.35,2.23,2.23,0,0,0-1.89-1.26c-1.39-.06-5.13.29-7.3.49C43.89,46.11,37.9,46.13,37.43,46.93Z"/><path d="M37,46.52C35,48.81,40.9,52,42.32,52.64c3.37,1.6,8.11,3.19,11.79,1.8,2.76-1,6.22-5,4.87-8.2-.58-1.36-1.91-1.71-3.25-1.68-2,0-4,.27-6.06.45-2.89.26-5.79.38-8.68.62-1.09.09-3.14,0-4,.89-.49.54.31,1.35.81.81.71-.79,3.27-.57,4.22-.64,2.18-.15,4.36-.26,6.54-.45,1.7-.14,3.4-.32,5.1-.44.74-.05,1.48-.12,2.22-.11,1.83,0,2.33,1.59,1.89,3.14-1.36,4.72-6,5.55-10.25,4.45a24.52,24.52,0,0,1-5.36-2c-.41-.22-5.16-3.1-4.36-4C38.32,46.79,37.52,46,37,46.52Z"/><path d="M64.48,66.57c3.75,5,6,13,.82,17.78-3.65,3.35-8.67,3.71-13.4,3.41-.86-.06-.86,1.29,0,1.34,5.29.34,10.87-.26,14.77-4.21,5.15-5.21,3-13.71-1-19-.51-.68-1.68,0-1.16.68Z"/><path d="M42.92,86.77c-1-.43-2-.7-2.95-1.11a3.87,3.87,0,0,1-1.73-1.1c-.91-1.23-.46-1.72.26-2.68s.5-1.75.4-2.84a6.78,6.78,0,0,1,1.83-5.57c.6-.62-.35-1.57-.95-.95a7.77,7.77,0,0,0-2.22,4.69c-.09.87.12,1.7.08,2.55-.07,1.5-1.07,1.81-1.31,3.07-.64,3.33,3.78,4.13,5.92,5.1.78.35,1.46-.8.68-1.16Z"/><path d="M59.13,88.32a11,11,0,0,1-.63,3.21.68.68,0,0,0,.58,1c1.74.07,3.26,1.13,2.93,3-.52,3-5.59,2.41-7.82,2.1-.84-.12-1.21,1.18-.36,1.29,3.22.44,9,.92,9.53-3.44.32-2.64-1.84-4.23-4.29-4.33l.58,1a12.9,12.9,0,0,0,.81-3.89c.1-.86-1.24-.85-1.34,0Z"/><path d="M52.11,89a6.82,6.82,0,0,1-.39,3,.68.68,0,0,0,.65.85,2.46,2.46,0,0,1,2.36,3c-.51,2.17-2.16,2.48-4.14,2.44a17.53,17.53,0,0,1-4.37-.4c-2.44-.69-2.94-2.47-2.54-4.78A14.55,14.55,0,0,0,44,89.31,3,3,0,0,0,43,87a.67.67,0,0,0-.68,1.16,6.21,6.21,0,0,1,.35,2c0,1.94-1,4-.36,5.93,1.16,3.53,5.5,3.56,8.55,3.57,1.52,0,3.24-.16,4.26-1.42a5,5,0,0,0,1-3.94,4.08,4.08,0,0,0-3.71-2.76l.65.85a8.24,8.24,0,0,0,.39-3.73c-.18-.84-1.48-.49-1.29.36Z"/><path class="cls-2" d="M40.08,77.07a5.42,5.42,0,0,1,1.4,2,3.51,3.51,0,0,1,.06,1.14,4.15,4.15,0,0,1-.31,1.45,4.48,4.48,0,0,1-2.95,2.06,6.3,6.3,0,0,1-2.08.36,2.68,2.68,0,0,1-1.9-.8c-.87-1-.63-2.48-.2-3.7a25.29,25.29,0,0,1,1.7-3.7c.37-.67,1.44-2.49,2.44-1.82.41.28.56,1.11.8,1.53A8.36,8.36,0,0,0,40.08,77.07Z"/><path class="cls-6" d="M61.57,75.76l3-.56c.24-.06.34-.21.22-.34s-.07-.14,0-.15c.69.13,1,1.14,1.12,1.82a.56.56,0,0,1-.46.66L59.3,78.35h0q-.85.05-1-.53L58.15,77a1.28,1.28,0,0,1,.29-1.06l2.92-3.67-3.44.64a.57.57,0,0,1-.68-.45c-.18-.66-.26-1.72.33-2.09.12,0,.12.08.1.12s.1.27.34.24l4.33-.82a9.7,9.7,0,0,0,1.84-.42c.16-.08.25-.06.24.09a3.33,3.33,0,0,0,.13.87,1.89,1.89,0,0,1-.49,2.1l-2.46,3.2Z"/><path d="M34.21,66.08c-1.6,1.86-3.33,4.16-3.48,6.7s1.59,4.62,3.17,6.34c.59.64,1.53-.31.95-.95-1.32-1.43-2.92-3.3-2.78-5.39S33.81,68.6,35.16,67c.56-.65-.38-1.6-.95-.95Z"/><path class="cls-7" d="M70.69,62.75a7.91,7.91,0,0,1,3.81.46,11.49,11.49,0,0,1,.28-2.36,7.79,7.79,0,0,0,.45-2,.38.38,0,0,0-.08-.28.4.4,0,0,0-.16-.08c-.81-.28-4.07-1.29-4.7-.44C70,58.47,71,62.71,70.69,62.75Z"/><path d="M40.73,68.29c-1.15,1.51-2.8,3.11-3,5.09-.18,1.49.79,2.66,1.58,3.83a9.1,9.1,0,0,1,1.4,2.45c.5,1.74-.6,3.08-2.32,3.54a6.63,6.63,0,0,1-4.74-.51c-.66-.36-1.5-1-1.47-1.83a1.91,1.91,0,0,1,2.05-1.57c.84.15,1.21-1.14.36-1.29-2.16-.39-4.42,1.7-3.51,3.91,1.12,2.73,5.2,3.24,7.67,2.59s4.28-3.26,3.06-5.83c-.65-1.38-1.9-2.49-2.47-3.9-.88-2.17,1.36-4.19,2.58-5.79.52-.69-.64-1.35-1.16-.68Z"/><path d="M70.72,68.39a4,4,0,0,1-1.42-2.54,2.58,2.58,0,0,1,2.09-2.63c1.23-.23,2.92.23,3.34,1.54a3.57,3.57,0,0,1-.8,3.49c-.62.6.33,1.55.95.95a4.93,4.93,0,0,0,1.07-5c-.64-1.73-2.75-2.49-4.47-2.3A3.88,3.88,0,0,0,68,65.29a4.9,4.9,0,0,0,1.76,4,.67.67,0,0,0,.95-.95Z"/><path d="M69.57,69c-.13,1.37-.3,2.74-.48,4.11-.11.85,1.23.84,1.34,0,.18-1.37.36-2.74.48-4.11.08-.86-1.26-.85-1.34,0Z"/><path d="M73.87,69.2a13.48,13.48,0,0,1,1.45,5.88,3.21,3.21,0,0,1-1.9,3.13,3.65,3.65,0,0,1-3.87-.94c-.62-.6-1.57.35-.95.95,1.91,1.82,5.49,2.31,7.18-.14,1.88-2.71.47-6.86-.76-9.55-.36-.78-1.51-.1-1.16.68Z"/><path class="cls-8" d="M74.37,60.58a.39.39,0,0,0,.25-.06.39.39,0,0,0,.11-.19,4.79,4.79,0,0,0,.21-1.3l-1.84-.12a12.43,12.43,0,0,1-2.59-.41c-.06,0-.13,0-.18,0a.16.16,0,0,0,0,.08c-.17,1.11.38,1.29,1.33,1.59A8.73,8.73,0,0,0,74.37,60.58Z"/><path class="cls-5" d="M78.78,37.93a9.78,9.78,0,0,1-2.86,7.56,6.58,6.58,0,0,1-7.26,1.23,5,5,0,0,1-1.26-1.29c-.25-.41-.42-.56-.18-1A5.36,5.36,0,0,1,68.45,43c3.23-2.08,5.45-3.09,9.72-6C78.17,37,78.65,37,78.78,37.93Z"/><path d="M78.26,37.93a9.12,9.12,0,0,1-2.34,6.82,6.07,6.07,0,0,1-4,2c-1.15.09-3.43-.1-3.94-1.37-.75-1.87,3.22-3.47,4.56-4.26.85-.5,1.69-1,2.53-1.52.37-.23,3-2.15,3.18-1.55s1.14.37,1-.27-.49-1.43-1.29-1.26-2,1.31-2.69,1.77-1.74,1.08-2.62,1.6c-1.53.9-6.82,3-5.92,5.44,1.12,3,5.76,2.88,8.06,1.62,3-1.67,4.8-5.65,4.49-9C79.23,37.28,78.2,37.28,78.26,37.93Z"/><path d="M71,62.68l-.45-4.49c-.07-.72-1.21-.73-1.14,0l.45,4.49c.07.72,1.21.73,1.14,0Z"/><path d="M75,62.83l.8-3.32c.17-.71-.93-1-1.1-.3l-.8,3.32c-.17.71.93,1,1.1.3Z"/><path class="cls-7" d="M72.42,51a7.41,7.41,0,0,0-2.78,1A3.79,3.79,0,0,0,68,55.23a2.91,2.91,0,0,0,.8,1.93,3.94,3.94,0,0,0,1,.67,12.07,12.07,0,0,0,8,1c-.31.07-1.06-2.77-1.12-3.06a11.13,11.13,0,0,1-.17-3.38c.09-.85.84-2.09-.34-2.08A21.56,21.56,0,0,0,72.42,51Z"/><path class="cls-7" d="M77.54,50a11.16,11.16,0,0,0-.23,6.83,3.5,3.5,0,0,0,.56,1.23,3.54,3.54,0,0,0,1.33.93,12,12,0,0,0,4.75,1.12c.37,0,.59.06,1,.08a17.27,17.27,0,0,1-.58-12.69c.06-.18.12-.41,0-.55s-.38,0-.56,0C81.67,48.11,79.6,49,77.54,50Z"/><polygon class="cls-5" points="76.92 54 83.14 53.04 83.74 56.02 77.3 55.8 76.92 54"/><polygon class="cls-5" points="76.91 53.04 83.43 51.85 83.43 50.95 76.54 52.4 76.91 53.04"/><path d="M77.46,49.59c-3.21.27-9.25.44-10,4.65-1.06,5.79,7,5.35,10.47,5.06.72-.06.73-1.2,0-1.14a39.06,39.06,0,0,1-4.68.08,5.65,5.65,0,0,1-3.53-.91A3,3,0,0,1,69.3,53c1.86-2,5.69-2,8.16-2.24.72-.06.73-1.2,0-1.14Z"/><path d="M76.93,49.85A8.86,8.86,0,0,0,77.38,59c.42.66,1.47,0,1-.61a7.64,7.64,0,0,1-.45-8,.61.61,0,0,0-1-.61Z"/><path d="M77.77,50.59c2.6-1.18,5.22-2.3,7.81-3.5.71-.33.09-1.38-.61-1-2.59,1.2-5.21,2.32-7.81,3.5-.71.32-.09,1.37.61,1Z"/><path d="M77.89,59.31a74.24,74.24,0,0,0,8.39,2.05c.76.15,1.09-1,.32-1.17a74.24,74.24,0,0,1-8.39-2.05c-.75-.24-1.07.93-.32,1.17Z"/><path class="cls-8" d="M84.92,46.83C83,49.13,83.2,55,84.5,58.76a4.19,4.19,0,0,0,.95,1.44,2.09,2.09,0,0,0,1.74.58,2.11,2.11,0,0,0,1.43-1c1.11-2.15,1.24-5.46,1-8.08-.17-1.63-.53-3.64-1.79-4.76a1.89,1.89,0,0,0-2.87-.1"/><path d="M84.43,46.54c-1.92,2.57-1.69,6.51-1.19,9.49.37,2.21,2,7.21,5.19,4.79,1.15-.89,1.46-2.74,1.65-4.08A20.37,20.37,0,0,0,90,50.51c-.42-2.56-2.55-6.46-5.48-4.09-.57.46.24,1.26.81.81,2.94-2.38,3.75,4.62,3.79,6.09s-.42,9.31-3.59,6.08c-1.37-1.4-1.44-4.82-1.46-6.64s.15-4.05,1.33-5.64c.44-.59-.55-1.16-1-.57Z"/><path d="M67.06,63.88a4,4,0,0,1,.93,1.2.67.67,0,1,0,1.16-.68A5.09,5.09,0,0,0,68,62.93a.69.69,0,0,0-.95,0,.68.68,0,0,0,0,.95Z"/><path class="cls-5" d="M69.61,53.53a2.73,2.73,0,0,0,1.49,4.1S69.37,56.69,69.61,53.53Z"/><path class="cls-9" d="M67.67,52.57a2.58,2.58,0,0,0-2.74-2.27,2,2,0,0,0-1.42.82,4.48,4.48,0,0,0-.7,1.53,6,6,0,0,0-.26,2.48c.23,1.63,1.48,3.35,3.18,3.35.89,0,1.84-1,2.09-2.46A10,10,0,0,0,67.67,52.57Z"/><path d="M68.21,52.42c-.5-1.62-1.79-3-3.64-2.62-2.43.53-3,4.31-2.37,6.3.57,1.7,2.55,3.7,4.48,2.69,2.15-1.12,2-4.38,1.53-6.37-.16-.7-1.24-.41-1.08.3a7.33,7.33,0,0,1,0,3.68c-.8,2.45-3.21,1.27-3.87-.6-.44-1.24-.22-4,1.14-4.76s2.36.54,2.71,1.68C67.35,53.4,68.43,53.11,68.21,52.42Z"/></g></g></svg>